<svg xmlns="http://www.w3.org/2000/svg" id="fin_horizontal" data-name="fin horizontal" viewBox="0 0 3647 959"><defs><linearGradient id="Degradado_sin_nombre_59" x1="0" x2="860.1" y1="479.5" y2="479.5" data-name="Degradado sin nombre 59" gradientUnits="userSpaceOnUse"><stop offset="0" stop-color="#79d0f2"/><stop offset=".4" stop-color="#068bbf"/><stop offset="1" stop-color="#04668c"/></linearGradient><linearGradient id="Degradado_sin_nombre_71" x1="539.44" x2="539.44" y1="959" y2="0" data-name="Degradado sin nombre 71" gradientUnits="userSpaceOnUse"><stop offset="0" stop-color="#79d0f2"/><stop offset=".05" stop-color="#6ecdf2"/><stop offset=".24" stop-color="#49c2f2"/><stop offset=".44" stop-color="#2cbaf2"/><stop offset=".63" stop-color="#17b4f2"/><stop offset=".82" stop-color="#0bb1f2"/><stop offset="1" stop-color="#07b0f2"/></linearGradient><style>.cls-1{fill:#07b0f2}.cls-1,.cls-4{stroke-width:0}.cls-4{fill:#068bbf}</style></defs><path d="M380.6 0H263.72v293.69H379.1c101.79 0 184.31 82.52 184.31 184.31S480.89 662.31 379.1 662.31H0V959h380.6c264.82 0 479.5-214.68 479.5-479.5S645.42 0 380.6 0" style="stroke-width:0;fill:url(#Degradado_sin_nombre_59)"/><path d="M860.1 479.5C860.1 214.68 645.42 0 380.6 0H263.72v293.69H379.1c101.79 0 184.31 82.52 184.31 184.31 0 7.93-.56 15.73-1.53 23.39.02 0 .05.03.05.03s-1.52 166.88-85.43 295.74c-83.91 128.87-257.73 161.83-257.73 161.83H380.6c264.82 0 479.5-214.68 479.5-479.5Z" style="stroke-width:0;fill:url(#Degradado_sin_nombre_71)"/><path d="M137.86 0h95.9v50.95h-95.9zM0 0h29.97v50.95H0zM56.94 0h50.95v50.95H56.94zM137.86 80.92h95.9v50.95h-95.9zM0 80.92h29.97v50.95H0zM56.94 80.92h50.95v50.95H56.94zM137.86 161.83h95.9v50.95h-95.9zM0 161.83h29.97v50.95H0zM56.94 161.83h50.95v50.95H56.94zM137.86 242.75h95.9v50.95h-95.9zM0 242.75h29.97v50.95H0zM56.94 242.75h50.95v50.95H56.94z" class="cls-1"/><path d="M1079.12 632.35h-81.27L879.88 953.56h84.55l22-59.89h108.88l19.86 59.89h81.93l-117.97-321.21ZM1008.2 822.9l30.28-81.22 29.6 81.22h-59.89ZM1726.99 632.35h-81.27l-117.97 321.21h84.55l22-59.89h108.88l19.86 59.89h81.93L1727 632.35Zm-70.92 190.55 30.28-81.22 29.6 81.22h-59.89ZM3529.03 632.35h-81.27l-117.97 321.21h84.55l22-59.89h108.88l19.86 59.89h81.93l-117.97-321.21Zm-70.92 190.55 30.28-81.22 29.6 81.22h-59.89ZM1472.96 632.35h-236.1v70.77h76.22v250.44h76.19V703.12h83.69zM2156.88 632.35h76.28v212.36c0 11.33 5.08 22.33 14.35 28.82 7.34 5.14 18.31 9.25 34.64 9.25 14.82 0 25.23-3.39 32.52-7.85 10.44-6.41 16.48-18.08 16.48-30.33V632.35h76.22V851.5c0 17.49-4.26 34.86-13.19 49.89-15.35 25.82-47.37 52.17-112.02 52.17s-96.69-26.34-112.06-52.16c-8.95-15.05-13.22-32.43-13.22-49.94zM2554.14 953.56h70.96V773.9l83.94 125.85c1.52 2.28 4.88 2.27 6.39-.02l83.07-125.84v179.66h76.6V632.34h-80.35l-76.97 131.06c-1.45 2.46-4.98 2.54-6.53.14l-84.73-131.2h-72.14l-.22 321.21ZM3169.56 730.34c5.44 0 65.33-43.55 65.33-43.55s-27.22-70.77-119.77-65.33-103.44 70.77-103.44 92.55 15.63 78.77 70.77 92.55c36.28 9.07 63.07 21.91 76.22 32.67 3.7 3.03 4.34 8.25 3.55 13.88-2.01 14.21-14.84 24.41-29.17 23.6-11.76-.66-25.88-2.02-34.26-4.82-24.96-8.32-38.11-32.67-38.11-32.67l-60.52 44.02s33.3 75.75 125.85 75.75c41.13 0 73.88-21.18 92.55-43.55 26.45-31.7 27.82-74.19 5.44-108.88-9.24-14.32-24.37-30.26-38.11-38.11-38.11-21.78-76.22-21.78-87.11-32.67-3.29-3.29-4.32-11.11-4.59-17.2-.56-12.55 8.02-23.98 20.38-26.25.18-.03.36-.07.55-.1 32.67-5.44 54.44 38.11 54.44 38.11" class="cls-4"/></svg>